<svg width="405" height="181" viewBox="0 0 405 181" fill="none" xmlns="http://www.w3.org/2000/svg">
<g clip-path="url(#clip0_444_4381)">
<g filter="url(#filter0_d_444_4381)">
<path d="M151.771 102.819C151.673 107.348 151.476 111.925 151.18 116.551C150.984 121.178 150.787 125.805 150.59 130.431C150.491 131.711 150.344 133.04 150.147 134.418C150.048 135.698 149.999 136.977 149.999 138.257C150.196 144.262 150.147 150.168 149.852 155.976C149.556 161.685 149.458 167.444 149.556 173.252C149.655 174.827 149.31 175.91 148.523 176.5C147.834 177.189 146.652 177.534 144.979 177.534C143.01 177.534 141.583 177.534 140.697 177.534C139.811 177.534 139.073 177.435 138.482 177.239C137.891 177.042 137.104 176.697 136.119 176.205C135.726 176.5 135.283 176.845 134.791 177.239C134.298 177.731 133.658 178.371 132.871 179.158C132.477 178.568 132.083 177.928 131.69 177.239C131.394 176.648 131.001 176.008 130.508 175.319C130.115 176.008 129.721 176.5 129.327 176.796C129.032 177.189 128.737 177.632 128.441 178.125C128.343 178.125 128.146 178.125 127.851 178.125C127.654 178.223 127.506 178.223 127.408 178.125C126.719 177.14 125.882 176.599 124.898 176.5C124.012 176.402 123.126 176.5 122.24 176.796C120.96 177.386 119.779 177.534 118.696 177.239C117.613 177.042 116.481 176.697 115.3 176.205C115.103 174.728 115.152 173.203 115.447 171.628C115.743 170.053 115.989 168.478 116.186 166.903C116.186 166.706 116.186 166.46 116.186 166.164C116.284 165.869 116.284 165.672 116.186 165.574C115.201 163.31 114.758 161.046 114.857 158.781C115.054 156.517 115.398 154.303 115.89 152.137C116.087 151.152 116.284 150.168 116.481 149.184C116.776 148.199 117.022 147.117 117.219 145.935C116.333 145.443 115.841 144.705 115.743 143.72C115.743 142.638 115.792 141.604 115.89 140.62C116.186 138.257 116.383 135.895 116.481 133.532C116.579 131.071 116.678 128.709 116.776 126.445C116.875 122.802 116.973 119.209 117.072 115.666C117.17 112.122 117.269 108.627 117.367 105.182C117.564 98.8818 117.761 92.5818 117.958 86.2817C118.154 79.8832 118.302 73.534 118.401 67.2339C118.597 64.3792 118.696 61.5245 118.696 58.6698C118.696 55.7167 118.745 52.862 118.844 50.1057C118.844 49.5151 118.893 49.0229 118.991 48.6291C119.09 48.1369 119.188 47.5463 119.287 46.8572C119.976 46.8572 120.665 46.8572 121.354 46.8572C122.043 46.7588 122.683 46.7096 123.273 46.7096H146.751C147.243 46.7096 147.784 46.6604 148.375 46.5619C149.064 46.4635 149.704 46.365 150.295 46.2666C152.46 46.2666 153.395 47.251 153.1 49.2197C152.706 51.3854 152.559 53.5018 152.657 55.569C152.854 57.5378 152.854 59.605 152.657 61.7706C152.46 63.5425 152.313 65.3636 152.214 67.2339C152.116 69.0058 151.968 70.7777 151.771 72.5496C151.771 74.0262 151.82 75.5027 151.919 76.9793C152.116 78.3575 152.214 79.7848 152.214 81.2614C152.214 81.9504 152.116 82.6395 151.919 83.3286C151.82 84.0176 151.722 84.7559 151.623 85.5434C151.525 85.8388 151.377 86.1833 151.18 86.577C151.082 86.8724 151.082 87.1677 151.18 87.463C151.87 88.9395 152.017 90.4161 151.623 91.8927C151.328 93.2708 150.836 94.649 150.147 96.0271C151.427 96.8146 152.066 97.799 152.066 98.9803C152.066 100.162 151.968 101.441 151.771 102.819ZM172.443 72.8449C172.246 75.6012 172.049 78.3575 171.853 81.1137C171.754 83.87 171.606 86.577 171.41 89.2349C171.41 89.3333 171.36 89.4317 171.262 89.5302C171.262 89.5302 171.262 89.6286 171.262 89.8255C168.407 89.6286 165.503 89.6286 162.55 89.8255C159.695 90.0224 156.693 89.8255 153.543 89.2349C153.641 86.3802 153.74 83.5255 153.838 80.6707C153.937 77.816 154.035 74.9613 154.134 72.1066C154.331 70.63 154.429 69.2027 154.429 67.8246C154.429 66.348 154.478 64.8714 154.577 63.3948C154.773 60.9339 155.02 58.5221 155.315 56.1596C155.61 53.7971 155.807 51.3854 155.906 48.9244C155.906 47.4479 156.545 46.7096 157.825 46.7096C160.483 46.808 163.092 46.9557 165.651 47.1525C168.309 47.251 171.065 47.3494 173.92 47.4479C173.821 50.1057 173.723 52.6651 173.624 55.126C173.526 57.587 173.428 59.9987 173.329 62.3612C173.231 64.2316 173.083 66.0527 172.886 67.8246C172.788 69.498 172.64 71.1715 172.443 72.8449ZM163.731 97.9466C165.602 98.0451 166.832 98.4388 167.423 99.1279C168.112 99.7185 168.358 100.998 168.161 102.967C168.063 104.837 167.964 106.658 167.866 108.43C167.767 110.202 167.669 112.023 167.57 113.894C167.57 116.059 167.718 118.323 168.013 120.686C168.112 122.458 167.915 123.639 167.423 124.23C166.931 124.82 165.799 125.165 164.027 125.263C163.436 125.362 162.944 125.411 162.55 125.411C162.156 125.312 161.713 125.263 161.221 125.263C159.056 125.362 157.579 125.362 156.791 125.263C156.004 125.066 155.561 124.574 155.463 123.787C155.463 122.901 155.463 121.572 155.463 119.8V102.819C155.561 100.851 155.906 99.5709 156.496 98.9803C157.087 98.3896 158.317 98.0943 160.188 98.0943C160.778 97.9959 161.369 97.9466 161.959 97.9466C162.649 97.9466 163.239 97.9466 163.731 97.9466ZM154.872 176.648C152.411 176.648 151.18 175.368 151.18 172.809V155.238C151.18 153.958 151.033 152.58 150.738 151.103C150.738 150.906 150.688 150.71 150.59 150.513C150.59 150.217 150.59 150.02 150.59 149.922C151.377 147.461 151.623 145.099 151.328 142.834C151.033 140.472 150.934 138.109 151.033 135.747C151.23 133.877 151.525 132.794 151.919 132.498C152.313 132.105 153.445 131.908 155.315 131.908H170.376C170.376 132.794 170.376 133.581 170.376 134.27C170.474 134.861 170.524 135.501 170.524 136.19C170.524 139.045 170.425 141.899 170.228 144.754C170.13 147.609 170.081 150.463 170.081 153.318C170.081 155.385 170.228 157.453 170.524 159.52C170.917 161.489 171.163 163.556 171.262 165.721C171.36 167.001 171.41 168.379 171.41 169.856C171.41 171.332 171.41 172.809 171.41 174.285C171.41 175.959 170.573 176.796 168.899 176.796C166.537 176.697 164.174 176.648 161.812 176.648C159.449 176.746 157.136 176.746 154.872 176.648Z" fill="white"/>
</g>
<g filter="url(#filter1_d_444_4381)">
<path d="M228.069 60.1187C227.496 64.6115 226.819 69.1428 226.039 73.7128C225.358 78.2931 224.676 82.8735 223.994 87.4538C223.762 88.7161 223.475 90.0221 223.135 91.3719C222.903 92.6342 222.719 93.9017 222.585 95.1743C222.15 101.166 221.48 107.035 220.577 112.78C219.683 118.426 218.981 124.143 218.468 129.929C218.401 131.506 217.945 132.546 217.099 133.051C216.342 133.664 215.131 133.882 213.467 133.707C211.509 133.5 210.089 133.35 209.208 133.257C208.327 133.164 207.603 132.988 207.037 132.73C206.47 132.473 205.723 132.047 204.796 131.454C204.373 131.707 203.897 132.003 203.366 132.343C202.825 132.78 202.121 133.35 201.255 134.05C200.926 133.421 200.601 132.744 200.282 132.017C200.05 131.399 199.726 130.721 199.309 129.984C198.845 130.628 198.402 131.076 197.979 131.328C197.644 131.689 197.304 132.098 196.958 132.557C196.861 132.546 196.665 132.526 196.371 132.495C196.165 132.572 196.018 132.556 195.931 132.448C195.349 131.397 194.574 130.771 193.605 130.569C192.734 130.378 191.843 130.383 190.931 130.584C189.596 131.037 188.406 131.06 187.36 130.652C186.304 130.343 185.214 129.881 184.091 129.268C184.051 127.778 184.26 126.266 184.719 124.731C185.178 123.196 185.588 121.655 185.949 120.11C185.97 119.914 185.996 119.669 186.027 119.375C186.156 119.092 186.177 118.896 186.089 118.788C185.348 116.433 185.145 114.135 185.481 111.894C185.915 109.663 186.49 107.497 187.207 105.395C187.506 104.436 187.805 103.478 188.104 102.52C188.501 101.572 188.86 100.521 189.18 99.3669C188.35 98.7844 187.938 97.9985 187.944 97.0092C188.058 95.9324 188.215 94.9096 188.416 93.941C188.958 91.6226 189.402 89.2939 189.748 86.9547C190.105 84.5177 190.451 82.1786 190.786 79.9374C191.267 76.3257 191.742 72.7629 192.212 69.2491C192.682 65.7353 193.147 62.2704 193.607 58.8544C194.465 52.6099 195.322 46.3654 196.18 40.1209C197.048 33.7785 197.861 27.4798 198.621 21.225C199.117 18.4067 199.514 15.5782 199.814 12.7393C200.124 9.80245 200.473 6.9687 200.861 4.23801C200.923 3.65065 201.023 3.16636 201.162 2.78512C201.312 2.30599 201.472 1.72897 201.642 1.05406C202.328 1.12643 203.013 1.19881 203.698 1.27119C204.394 1.24567 205.035 1.26393 205.622 1.32597L228.97 3.79197C229.46 3.84367 230.003 3.85159 230.601 3.81574C231.296 3.79023 231.943 3.75954 232.541 3.72368C234.694 3.95115 235.521 5.02832 235.021 6.95517C234.402 9.06747 234.032 11.1567 233.913 13.2228C233.902 15.2013 233.685 17.2571 233.262 19.3901C232.88 21.1315 232.542 22.927 232.247 24.7767C231.963 26.5284 231.63 28.275 231.249 30.0164C231.093 31.4848 230.987 32.9584 230.93 34.4371C230.981 35.8283 230.929 37.2581 230.774 38.7265C230.702 39.4118 230.531 40.0867 230.263 40.7512C230.093 41.4262 229.917 42.15 229.737 42.9228C229.608 43.2062 229.425 43.5333 229.188 43.9042C229.059 44.1875 229.028 44.4812 229.095 44.7852C229.625 46.326 229.617 47.8099 229.07 49.237C228.632 50.5765 227.997 51.8953 227.167 53.1934C228.357 54.111 228.89 55.1571 228.766 56.3319C228.642 57.5066 228.41 58.7689 228.069 60.1187ZM251.775 32.4814C251.29 35.2017 250.805 37.9221 250.319 40.6424C249.932 43.3731 249.501 46.0497 249.026 48.6721C249.015 48.77 248.956 48.8627 248.848 48.9503C248.848 48.9503 248.838 49.0482 248.817 49.244C245.999 48.7483 243.111 48.4433 240.153 48.3289C237.294 48.2249 234.329 47.7137 231.258 46.7955C231.656 43.9669 232.054 41.1383 232.451 38.3097C232.849 35.4812 233.247 32.6526 233.645 29.824C233.995 28.3763 234.243 26.9672 234.388 25.5967C234.543 24.1283 234.747 22.665 235 21.207C235.454 18.7803 235.952 16.4077 236.494 14.0893C237.036 11.7709 237.485 9.39317 237.842 6.95617C237.997 5.48776 238.711 4.82077 239.983 4.95518C242.616 5.33225 245.195 5.75309 247.719 6.21771C250.352 6.59477 253.083 6.98217 255.911 7.37992C255.534 10.0127 255.167 12.5476 254.811 14.9846C254.455 17.4216 254.103 19.8097 253.757 22.1488C253.463 23.9984 253.125 25.7939 252.743 27.5353C252.469 29.1892 252.147 30.8379 251.775 32.4814ZM240.475 56.5292C242.325 56.8236 243.507 57.3444 244.022 58.0917C244.645 58.7514 244.755 60.0499 244.353 61.9871C244.059 63.8367 243.769 65.6374 243.485 67.3892C243.201 69.1409 242.912 70.9416 242.618 72.7912C242.39 74.9449 242.299 77.212 242.345 79.5924C242.257 81.3649 241.937 82.5189 241.385 83.0546C240.834 83.5902 239.672 83.814 237.899 83.7257C237.302 83.7616 236.807 83.7588 236.416 83.7175C236.034 83.5782 235.599 83.4827 235.109 83.431C232.945 83.3015 231.477 83.1464 230.704 82.9658C229.942 82.6873 229.553 82.1513 229.538 81.3578C229.631 80.4767 229.77 79.1552 229.957 77.3931L231.74 60.5064C232.045 58.5589 232.522 57.3225 233.171 56.7971C233.821 56.2718 235.075 56.1074 236.935 56.3038C237.533 56.268 238.126 56.2811 238.713 56.3431C239.398 56.4155 239.986 56.4775 240.475 56.5292ZM223.398 133.865C220.951 133.606 219.861 132.204 220.13 129.659L221.976 112.185C222.11 110.912 222.108 109.526 221.97 108.027C221.99 107.831 221.962 107.63 221.885 107.424C221.916 107.13 221.937 106.935 221.947 106.837C222.989 104.472 223.481 102.148 223.426 99.8659C223.38 97.4855 223.53 95.1257 223.876 92.7866C224.269 90.9473 224.676 89.9015 225.099 89.6491C225.531 89.2989 226.678 89.222 228.538 89.4185L243.516 91.0005C243.423 91.8815 243.34 92.6646 243.267 93.3499C243.303 93.9476 243.285 94.5891 243.213 95.2743C242.913 98.1133 242.515 100.942 242.019 103.76C241.622 106.589 241.273 109.422 240.973 112.261C240.756 114.317 240.686 116.388 240.762 118.475C240.947 120.474 240.975 122.556 240.845 124.72C240.808 126.003 240.713 127.379 240.558 128.847C240.403 130.315 240.247 131.784 240.092 133.252C239.917 134.916 238.997 135.661 237.332 135.485C234.993 135.139 232.649 134.842 230.3 134.594C227.94 134.443 225.639 134.2 223.398 133.865Z" fill="white"/>
</g>
<g filter="url(#filter2_d_444_4381)">
<path d="M68.3619 47.865C70.0222 49.2484 71.5609 50.7289 72.9779 52.3063C74.361 53.7914 75.3497 55.6307 75.944 57.8242C76.3937 59.3369 76.8895 60.8326 77.4316 62.3114C77.9736 63.7902 78.5619 65.252 79.1964 66.697C80.219 68.6287 80.8719 70.6959 81.1551 72.8986C81.4969 74.9751 81.3549 77.0191 80.7294 79.0307C80.4149 81.0332 79.8186 82.9817 78.9404 84.8762C78.0622 86.7708 77.1671 88.6191 76.255 90.4212C75.1334 92.5098 73.7546 94.3258 72.1186 95.869C70.5412 97.286 68.8081 98.7076 66.9195 100.134L74.8218 97.2371C76.9476 96.4579 78.297 96.2778 78.8699 96.6969C79.5014 96.9896 80.2992 98.165 81.2633 100.223C84.7899 107.842 87.9007 115.613 90.5955 123.537C93.2903 131.461 96.17 139.317 99.2345 147.105L101.318 152.79C100.462 153.313 99.6682 153.866 98.9381 154.448C98.2079 155.031 97.4731 155.457 96.7337 155.728C94.7342 156.566 92.7471 157.294 90.7723 157.913C88.9238 158.591 87.0291 159.285 85.0882 159.997C83.7018 160.505 82.6929 160.613 82.0614 160.32C81.4637 160.12 80.6967 159.457 79.7603 158.333C78.2324 156.167 77.0451 153.929 76.1981 151.618C75.3511 149.307 74.4117 147.031 73.3799 144.788C71.9508 141.747 70.5509 138.643 69.1803 135.476C67.9021 132.275 66.5947 129.137 65.258 126.062C64.5218 124.34 63.8196 122.71 63.1512 121.173C62.5414 119.509 61.8561 117.926 61.0953 116.422C60.427 114.885 60.6335 113.446 61.715 112.106C60.7631 111.512 59.9206 110.929 59.1874 110.359C58.4543 109.789 58.3758 108.717 58.9521 107.143C59.1771 106.327 59.057 105.427 58.5919 104.444C58.1854 103.335 57.7665 102.336 57.3353 101.445C56.4637 99.3533 55.5335 97.3877 54.5448 95.5484C53.6146 93.5828 52.7306 91.6003 51.8929 89.6009C49.8694 84.3665 47.8458 79.1322 45.8223 73.8979C43.8574 68.5372 41.8 63.2105 39.6502 57.9176C39.2437 56.8085 38.8833 55.6825 38.5692 54.5395C38.3136 53.2702 37.9656 52.0348 37.5252 50.8333C37.0509 49.5394 36.4041 48.2038 35.5848 46.8266C34.596 44.9874 34.9412 43.4979 36.6203 42.3582C37.6617 41.7668 38.6737 41.2385 39.6565 40.7735C40.6393 40.3084 41.7576 40.213 43.0114 40.4873C43.4828 40.629 43.9665 40.6614 44.4625 40.5845C44.9585 40.5075 45.362 40.4644 45.6732 40.4552C45.6732 40.4552 45.8457 40.4968 46.1907 40.58C46.5943 40.5369 47.4107 40.7619 48.6398 41.2549C56.0489 41.1602 62.623 43.3635 68.3619 47.865ZM56.6505 109.874C57.633 112.554 58.7541 115.184 60.0139 117.762C61.2398 120.249 62.1591 122.9 62.7719 125.716C63.283 128.254 64.1176 130.674 65.2758 132.975C66.4924 135.151 67.4025 137.49 68.0061 139.995C68.9485 143.424 70.0002 146.865 71.1613 150.319C72.3223 153.773 73.4542 157.289 74.5567 160.869C74.6922 161.239 74.7353 161.642 74.686 162.08C74.6705 162.61 74.7013 163.123 74.7782 163.619L43.8622 174.951L0.0571691 55.446L31.6664 43.8595C32.4611 45.4554 33.2557 47.0513 34.0504 48.6472C34.9375 50.2092 35.6859 51.822 36.2958 53.4857C38.7413 59.2992 40.7708 65.2652 42.3845 71.3837C43.1914 74.4429 44.2755 77.4005 45.6369 80.2564C47.0907 83.0785 48.3596 85.9683 49.4438 88.9259C50.4601 91.6987 51.3841 94.5053 52.2156 97.3458C53.0471 100.186 53.9079 102.964 54.7979 105.678C55.0351 106.325 55.2891 107.018 55.5602 107.757C55.9236 108.463 56.2871 109.168 56.6505 109.874Z" fill="white"/>
</g>
<g filter="url(#filter3_d_444_4381)">
<path d="M316 89.659C313.016 90.2965 310.186 90.9514 307.512 91.6235C304.837 92.2956 302.031 92.5929 299.096 92.5155L301.718 104.789C302.647 103.484 303.679 102.659 304.813 102.316C306.024 101.856 307.323 101.579 308.712 101.483C310.101 101.388 311.449 101.1 312.755 100.62C313.296 103.624 314.048 106.433 315.009 109.046C316.045 111.543 316.477 114.269 316.303 117.225C316.343 118.827 316.586 120.436 317.032 122.052C317.478 123.668 317.779 125.315 317.937 126.993C318.169 128.553 318.182 129.557 317.976 130.004C317.749 130.355 316.865 130.694 315.325 131.023L307.239 132.751C308.932 139.737 310.413 146.668 311.681 153.544C313.024 160.303 314.704 166.991 316.722 173.606L283.943 180.609L257.907 58.736C258.443 58.4201 260.241 57.885 263.301 57.1306C266.361 56.3762 270.057 55.5363 274.389 54.6108C278.721 53.6853 283.149 52.7393 287.674 51.7727C292.198 50.8061 296.252 49.9905 299.834 49.3258C303.396 48.5649 305.823 48.147 307.116 48.0721L316 89.659Z" fill="white"/>
</g>
<g filter="url(#filter4_d_444_4381)">
<path d="M392.209 125.826C392.79 128.361 393.136 130.826 393.246 133.221C393.233 135.681 392.721 138.096 391.708 140.466C390.893 142.174 390.402 143.826 390.236 145.42C389.38 149.683 387.639 153.12 385.015 155.729C382.269 158.404 379.263 160.746 375.996 162.753C372.729 164.76 369.267 166.042 365.611 166.598C361.926 167.249 358.236 167.744 354.54 168.083C353.296 168.124 352.041 167.854 350.776 167.272C349.417 166.663 348.124 166.176 346.897 165.811C348.685 160.489 350.524 155.336 352.416 150.353C354.214 145.342 355.836 140.227 357.285 135.009C358.649 130.075 360.088 125.06 361.602 119.964C362.994 114.935 364.198 109.85 365.212 104.709C364.541 104.202 363.829 103.836 363.074 103.611C356.854 101.044 352.078 97.4164 348.747 92.7294C345.388 88.1368 343.352 82.5508 342.637 75.9714C342.331 74.2373 342.242 72.4649 342.369 70.6543C342.468 68.938 342.879 67.2115 343.6 65.4748C343.965 64.2481 344.377 63.0355 344.836 61.8369C345.172 60.7045 345.448 59.6054 345.662 58.5394C346.235 54.1913 347.961 50.802 350.84 48.3715C353.625 45.9129 356.637 43.7272 359.875 41.8143C363.142 39.8071 366.698 38.5534 370.544 38.0533C374.295 37.5252 378.133 37.7417 382.058 38.7028C382.718 38.8991 383.317 39.1286 383.856 39.3912C384.422 39.5595 384.969 39.6194 385.497 39.5709C387.108 39.331 388.373 39.9124 389.291 41.3149C389.557 41.8046 390.006 42.1947 390.638 42.4854C391.204 42.6536 391.695 42.9022 392.111 43.2312C397.352 46.3293 400.672 50.7051 402.073 56.3588C402.417 58.3096 402.286 60.4786 401.679 62.8656C401.072 65.2526 400.149 67.4943 398.91 69.5906C397.577 71.6589 396.133 73.2325 394.58 74.3113C392.933 75.3621 391.3 76.3657 389.68 77.3221C388.061 78.2786 386.238 78.7122 384.21 78.6231C383.088 78.5977 382.027 78.5391 381.028 78.4474C379.934 78.3276 378.854 78.1606 377.788 77.9465C377.905 75.8247 378.277 73.8815 378.904 72.1167C379.531 70.352 380.064 68.5591 380.503 66.7383C380.51 66.0217 380.551 65.3663 380.625 64.7721C380.699 64.1779 380.773 63.5837 380.847 62.9895C379.893 66.1977 378.94 69.4059 377.986 72.6141C377.005 75.9166 376.131 79.2 375.367 82.4643C374.469 85.4838 373.68 88.4841 372.999 91.4654C372.196 94.5129 371.365 97.6547 370.506 100.891C371.46 101.483 372.428 102.027 373.41 102.524C374.269 103.088 375.128 103.651 375.988 104.215C379.936 106.826 383.385 109.905 386.336 113.452C389.192 116.971 391.15 121.096 392.209 125.826ZM345.482 165.391C341.886 164.014 339.161 162.126 337.307 159.726C334.649 156.574 332.731 153.18 331.553 149.544C330.252 145.973 330.36 142.154 331.877 138.087C334.677 130.395 340.153 125.964 348.306 124.793C349.984 124.675 351.695 124.619 353.439 124.624C355.156 124.724 356.803 125.573 358.382 127.171C356.503 133.493 354.563 139.849 352.561 146.237C350.56 152.625 348.2 159.01 345.482 165.391ZM383.524 53.4644L382.675 53.212C382.404 54.4667 382.195 55.6882 382.048 56.8766C381.805 58.037 381.61 59.2114 381.462 60.3997L383.524 53.4644Z" fill="white"/>
</g>
</g>
<defs>
<filter id="filter0_d_444_4381" x="86.6553" y="25.3269" width="115.452" height="189.268" filterUnits="userSpaceOnUse" color-interpolation-filters="sRGB">
<feFlood flood-opacity="0" result="BackgroundImageFix"/>
<feColorMatrix in="SourceAlpha" type="matrix" values="0 0 0 0 0 0 0 0 0 0 0 0 0 0 0 0 0 0 127 0" result="hardAlpha"/>
<feOffset dy="7.24836"/>
<feGaussianBlur stdDeviation="14.094"/>
<feComposite in2="hardAlpha" operator="out"/>
<feColorMatrix type="matrix" values="0 0 0 0 1 0 0 0 0 1 0 0 0 0 1 0 0 0 0.36 0"/>
<feBlend mode="normal" in2="BackgroundImageFix" result="effect1_dropShadow_444_4381"/>
<feBlend mode="normal" in="SourceGraphic" in2="effect1_dropShadow_444_4381" result="shape"/>
</filter>
<filter id="filter1_d_444_4381" x="155.898" y="-19.8857" width="128.201" height="190.832" filterUnits="userSpaceOnUse" color-interpolation-filters="sRGB">
<feFlood flood-opacity="0" result="BackgroundImageFix"/>
<feColorMatrix in="SourceAlpha" type="matrix" values="0 0 0 0 0 0 0 0 0 0 0 0 0 0 0 0 0 0 127 0" result="hardAlpha"/>
<feOffset dy="7.24836"/>
<feGaussianBlur stdDeviation="14.094"/>
<feComposite in2="hardAlpha" operator="out"/>
<feColorMatrix type="matrix" values="0 0 0 0 1 0 0 0 0 1 0 0 0 0 1 0 0 0 0.36 0"/>
<feBlend mode="normal" in2="BackgroundImageFix" result="effect1_dropShadow_444_4381"/>
<feBlend mode="normal" in="SourceGraphic" in2="effect1_dropShadow_444_4381" result="shape"/>
</filter>
<filter id="filter2_d_444_4381" x="-28.1309" y="19.395" width="157.637" height="190.993" filterUnits="userSpaceOnUse" color-interpolation-filters="sRGB">
<feFlood flood-opacity="0" result="BackgroundImageFix"/>
<feColorMatrix in="SourceAlpha" type="matrix" values="0 0 0 0 0 0 0 0 0 0 0 0 0 0 0 0 0 0 127 0" result="hardAlpha"/>
<feOffset dy="7.24836"/>
<feGaussianBlur stdDeviation="14.094"/>
<feComposite in2="hardAlpha" operator="out"/>
<feColorMatrix type="matrix" values="0 0 0 0 1 0 0 0 0 1 0 0 0 0 1 0 0 0 0.36 0"/>
<feBlend mode="normal" in2="BackgroundImageFix" result="effect1_dropShadow_444_4381"/>
<feBlend mode="normal" in="SourceGraphic" in2="effect1_dropShadow_444_4381" result="shape"/>
</filter>
<filter id="filter3_d_444_4381" x="229.719" y="27.1323" width="116.591" height="188.913" filterUnits="userSpaceOnUse" color-interpolation-filters="sRGB">
<feFlood flood-opacity="0" result="BackgroundImageFix"/>
<feColorMatrix in="SourceAlpha" type="matrix" values="0 0 0 0 0 0 0 0 0 0 0 0 0 0 0 0 0 0 127 0" result="hardAlpha"/>
<feOffset dy="7.24836"/>
<feGaussianBlur stdDeviation="14.094"/>
<feComposite in2="hardAlpha" operator="out"/>
<feColorMatrix type="matrix" values="0 0 0 0 1 0 0 0 0 1 0 0 0 0 1 0 0 0 0.36 0"/>
<feBlend mode="normal" in2="BackgroundImageFix" result="effect1_dropShadow_444_4381"/>
<feBlend mode="normal" in="SourceGraphic" in2="effect1_dropShadow_444_4381" result="shape"/>
</filter>
<filter id="filter4_d_444_4381" x="302.464" y="16.8328" width="127.984" height="186.691" filterUnits="userSpaceOnUse" color-interpolation-filters="sRGB">
<feFlood flood-opacity="0" result="BackgroundImageFix"/>
<feColorMatrix in="SourceAlpha" type="matrix" values="0 0 0 0 0 0 0 0 0 0 0 0 0 0 0 0 0 0 127 0" result="hardAlpha"/>
<feOffset dy="7.24836"/>
<feGaussianBlur stdDeviation="14.094"/>
<feComposite in2="hardAlpha" operator="out"/>
<feColorMatrix type="matrix" values="0 0 0 0 1 0 0 0 0 1 0 0 0 0 1 0 0 0 0.36 0"/>
<feBlend mode="normal" in2="BackgroundImageFix" result="effect1_dropShadow_444_4381"/>
<feBlend mode="normal" in="SourceGraphic" in2="effect1_dropShadow_444_4381" result="shape"/>
</filter>
<clipPath id="clip0_444_4381">
<rect width="405" height="181" fill="white"/>
</clipPath>
</defs>
</svg>
