<svg width="105" height="105" viewBox="0 0 105 105" fill="none" xmlns="http://www.w3.org/2000/svg">
<g clip-path="url(#clip0_446_4521)">
<path d="M104.225 0H0V104.225H104.225V0Z" fill="white"/>
<path d="M3.86023 3.85986H7.72042V7.72005H3.86023V3.85986ZM7.72042 3.85986H11.5806V7.72005H7.72042V3.85986ZM11.5806 3.85986H15.4408V7.72005H11.5806V3.85986ZM15.4408 3.85986H19.301V7.72005H15.4408V3.85986ZM19.301 3.85986H23.1612V7.72005H19.301V3.85986ZM23.1612 3.85986H27.0214V7.72005H23.1612V3.85986ZM27.0214 3.85986H30.8816V7.72005H27.0214V3.85986ZM38.602 3.85986H42.4621V7.72005H38.602V3.85986ZM65.6233 3.85986H69.4835V7.72005H65.6233V3.85986ZM73.3437 3.85986H77.2039V7.72005H73.3437V3.85986ZM77.2039 3.85986H81.0641V7.72005H77.2039V3.85986ZM81.0641 3.85986H84.9243V7.72005H81.0641V3.85986ZM84.9243 3.85986H88.7844V7.72005H84.9243V3.85986ZM88.7844 3.85986H92.6446V7.72005H88.7844V3.85986ZM92.6446 3.85986H96.5048V7.72005H92.6446V3.85986ZM96.5048 3.85986H100.365V7.72005H96.5048V3.85986ZM3.86023 7.72005H7.72042V11.5802H3.86023V7.72005ZM27.0214 7.72005H30.8816V11.5802H27.0214V7.72005ZM34.7418 7.72005H38.602V11.5802H34.7418V7.72005ZM38.602 7.72005H42.4621V11.5802H38.602V7.72005ZM46.3223 7.72005H50.1825V11.5802H46.3223V7.72005ZM50.1825 7.72005H54.0427V11.5802H50.1825V7.72005ZM57.9029 7.72005H61.7631V11.5802H57.9029V7.72005ZM61.7631 7.72005H65.6233V11.5802H61.7631V7.72005ZM65.6233 7.72005H69.4835V11.5802H65.6233V7.72005ZM73.3437 7.72005H77.2039V11.5802H73.3437V7.72005ZM96.5048 7.72005H100.365V11.5802H96.5048V7.72005ZM3.86023 11.5802H7.72042V15.4404H3.86023V11.5802ZM11.5806 11.5802H15.4408V15.4404H11.5806V11.5802ZM15.4408 11.5802H19.301V15.4404H15.4408V11.5802ZM19.301 11.5802H23.1612V15.4404H19.301V11.5802ZM27.0214 11.5802H30.8816V15.4404H27.0214V11.5802ZM38.602 11.5802H42.4621V15.4404H38.602V11.5802ZM42.4621 11.5802H46.3223V15.4404H42.4621V11.5802ZM46.3223 11.5802H50.1825V15.4404H46.3223V11.5802ZM57.9029 11.5802H61.7631V15.4404H57.9029V11.5802ZM61.7631 11.5802H65.6233V15.4404H61.7631V11.5802ZM65.6233 11.5802H69.4835V15.4404H65.6233V11.5802ZM73.3437 11.5802H77.2039V15.4404H73.3437V11.5802ZM81.0641 11.5802H84.9243V15.4404H81.0641V11.5802ZM84.9243 11.5802H88.7844V15.4404H84.9243V11.5802ZM88.7844 11.5802H92.6446V15.4404H88.7844V11.5802ZM96.5048 11.5802H100.365V15.4404H96.5048V11.5802ZM3.86023 15.4404H7.72042V19.3006H3.86023V15.4404ZM11.5806 15.4404H15.4408V19.3006H11.5806V15.4404ZM15.4408 15.4404H19.301V19.3006H15.4408V15.4404ZM19.301 15.4404H23.1612V19.3006H19.301V15.4404ZM27.0214 15.4404H30.8816V19.3006H27.0214V15.4404ZM34.7418 15.4404H38.602V19.3006H34.7418V15.4404ZM38.602 15.4404H42.4621V19.3006H38.602V15.4404ZM46.3223 15.4404H50.1825V19.3006H46.3223V15.4404ZM54.0427 15.4404H57.9029V19.3006H54.0427V15.4404ZM57.9029 15.4404H61.7631V19.3006H57.9029V15.4404ZM61.7631 15.4404H65.6233V19.3006H61.7631V15.4404ZM73.3437 15.4404H77.2039V19.3006H73.3437V15.4404ZM81.0641 15.4404H84.9243V19.3006H81.0641V15.4404ZM84.9243 15.4404H88.7844V19.3006H84.9243V15.4404ZM88.7844 15.4404H92.6446V19.3006H88.7844V15.4404ZM96.5048 15.4404H100.365V19.3006H96.5048V15.4404ZM3.86023 19.3006H7.72042V23.1608H3.86023V19.3006ZM11.5806 19.3006H15.4408V23.1608H11.5806V19.3006ZM15.4408 19.3006H19.301V23.1608H15.4408V19.3006ZM19.301 19.3006H23.1612V23.1608H19.301V19.3006ZM27.0214 19.3006H30.8816V23.1608H27.0214V19.3006ZM42.4621 19.3006H46.3223V23.1608H42.4621V19.3006ZM50.1825 19.3006H54.0427V23.1608H50.1825V19.3006ZM65.6233 19.3006H69.4835V23.1608H65.6233V19.3006ZM73.3437 19.3006H77.2039V23.1608H73.3437V19.3006ZM81.0641 19.3006H84.9243V23.1608H81.0641V19.3006ZM84.9243 19.3006H88.7844V23.1608H84.9243V19.3006ZM88.7844 19.3006H92.6446V23.1608H88.7844V19.3006ZM96.5048 19.3006H100.365V23.1608H96.5048V19.3006ZM3.86023 23.1608H7.72042V27.021H3.86023V23.1608ZM27.0214 23.1608H30.8816V27.021H27.0214V23.1608ZM34.7418 23.1608H38.602V27.021H34.7418V23.1608ZM42.4621 23.1608H46.3223V27.021H42.4621V23.1608ZM54.0427 23.1608H57.9029V27.021H54.0427V23.1608ZM57.9029 23.1608H61.7631V27.021H57.9029V23.1608ZM61.7631 23.1608H65.6233V27.021H61.7631V23.1608ZM65.6233 23.1608H69.4835V27.021H65.6233V23.1608ZM73.3437 23.1608H77.2039V27.021H73.3437V23.1608ZM96.5048 23.1608H100.365V27.021H96.5048V23.1608ZM3.86023 27.021H7.72042V30.8812H3.86023V27.021ZM7.72042 27.021H11.5806V30.8812H7.72042V27.021ZM11.5806 27.021H15.4408V30.8812H11.5806V27.021ZM15.4408 27.021H19.301V30.8812H15.4408V27.021ZM19.301 27.021H23.1612V30.8812H19.301V27.021ZM23.1612 27.021H27.0214V30.8812H23.1612V27.021ZM27.0214 27.021H30.8816V30.8812H27.0214V27.021ZM34.7418 27.021H38.602V30.8812H34.7418V27.021ZM42.4621 27.021H46.3223V30.8812H42.4621V27.021ZM50.1825 27.021H54.0427V30.8812H50.1825V27.021ZM57.9029 27.021H61.7631V30.8812H57.9029V27.021ZM65.6233 27.021H69.4835V30.8812H65.6233V27.021ZM73.3437 27.021H77.2039V30.8812H73.3437V27.021ZM77.2039 27.021H81.0641V30.8812H77.2039V27.021ZM81.0641 27.021H84.9243V30.8812H81.0641V27.021ZM84.9243 27.021H88.7844V30.8812H84.9243V27.021ZM88.7844 27.021H92.6446V30.8812H88.7844V27.021ZM92.6446 27.021H96.5048V30.8812H92.6446V27.021ZM96.5048 27.021H100.365V30.8812H96.5048V27.021ZM50.1825 30.8812H54.0427V34.7414H50.1825V30.8812ZM61.7631 30.8812H65.6233V34.7414H61.7631V30.8812ZM65.6233 30.8812H69.4835V34.7414H65.6233V30.8812ZM3.86023 34.7414H7.72042V38.6016H3.86023V34.7414ZM7.72042 34.7414H11.5806V38.6016H7.72042V34.7414ZM11.5806 34.7414H15.4408V38.6016H11.5806V34.7414ZM15.4408 34.7414H19.301V38.6016H15.4408V34.7414ZM19.301 34.7414H23.1612V38.6016H19.301V34.7414ZM27.0214 34.7414H30.8816V38.6016H27.0214V34.7414ZM30.8816 34.7414H34.7418V38.6016H30.8816V34.7414ZM34.7418 34.7414H38.602V38.6016H34.7418V34.7414ZM38.602 34.7414H42.4621V38.6016H38.602V34.7414ZM42.4621 34.7414H46.3223V38.6016H42.4621V34.7414ZM50.1825 34.7414H54.0427V38.6016H50.1825V34.7414ZM54.0427 34.7414H57.9029V38.6016H54.0427V34.7414ZM57.9029 34.7414H61.7631V38.6016H57.9029V34.7414ZM61.7631 34.7414H65.6233V38.6016H61.7631V34.7414ZM69.4835 34.7414H73.3437V38.6016H69.4835V34.7414ZM77.2039 34.7414H81.0641V38.6016H77.2039V34.7414ZM84.9243 34.7414H88.7844V38.6016H84.9243V34.7414ZM92.6446 34.7414H96.5048V38.6016H92.6446V34.7414ZM3.86023 38.6016H7.72042V42.4618H3.86023V38.6016ZM11.5806 38.6016H15.4408V42.4618H11.5806V38.6016ZM15.4408 38.6016H19.301V42.4618H15.4408V38.6016ZM19.301 38.6016H23.1612V42.4618H19.301V38.6016ZM23.1612 38.6016H27.0214V42.4618H23.1612V38.6016ZM30.8816 38.6016H34.7418V42.4618H30.8816V38.6016ZM38.602 38.6016H42.4621V42.4618H38.602V38.6016ZM57.9029 38.6016H61.7631V42.4618H57.9029V38.6016ZM65.6233 38.6016H69.4835V42.4618H65.6233V38.6016ZM92.6446 38.6016H96.5048V42.4618H92.6446V38.6016ZM3.86023 42.4618H7.72042V46.322H3.86023V42.4618ZM7.72042 42.4618H11.5806V46.322H7.72042V42.4618ZM11.5806 42.4618H15.4408V46.322H11.5806V42.4618ZM15.4408 42.4618H19.301V46.322H15.4408V42.4618ZM27.0214 42.4618H30.8816V46.322H27.0214V42.4618ZM38.602 42.4618H42.4621V46.322H38.602V42.4618ZM46.3223 42.4618H50.1825V46.322H46.3223V42.4618ZM50.1825 42.4618H54.0427V46.322H50.1825V42.4618ZM54.0427 42.4618H57.9029V46.322H54.0427V42.4618ZM61.7631 42.4618H65.6233V46.322H61.7631V42.4618ZM65.6233 42.4618H69.4835V46.322H65.6233V42.4618ZM69.4835 42.4618H73.3437V46.322H69.4835V42.4618ZM84.9243 42.4618H88.7844V46.322H84.9243V42.4618ZM92.6446 42.4618H96.5048V46.322H92.6446V42.4618ZM96.5048 42.4618H100.365V46.322H96.5048V42.4618ZM3.86023 46.322H7.72042V50.1822H3.86023V46.322ZM7.72042 46.322H11.5806V50.1822H7.72042V46.322ZM11.5806 46.322H15.4408V50.1822H11.5806V46.322ZM34.7418 46.322H38.602V50.1822H34.7418V46.322ZM38.602 46.322H42.4621V50.1822H38.602V46.322ZM42.4621 46.322H46.3223V50.1822H42.4621V46.322ZM46.3223 46.322H50.1825V50.1822H46.3223V46.322ZM57.9029 46.322H61.7631V50.1822H57.9029V46.322ZM61.7631 46.322H65.6233V50.1822H61.7631V46.322ZM65.6233 46.322H69.4835V50.1822H65.6233V46.322ZM77.2039 46.322H81.0641V50.1822H77.2039V46.322ZM96.5048 46.322H100.365V50.1822H96.5048V46.322ZM3.86023 50.1822H7.72042V54.0424H3.86023V50.1822ZM19.301 50.1822H23.1612V54.0424H19.301V50.1822ZM27.0214 50.1822H30.8816V54.0424H27.0214V50.1822ZM30.8816 50.1822H34.7418V54.0424H30.8816V50.1822ZM34.7418 50.1822H38.602V54.0424H34.7418V50.1822ZM38.602 50.1822H42.4621V54.0424H38.602V50.1822ZM46.3223 50.1822H50.1825V54.0424H46.3223V50.1822ZM61.7631 50.1822H65.6233V54.0424H61.7631V50.1822ZM69.4835 50.1822H73.3437V54.0424H69.4835V50.1822ZM73.3437 50.1822H77.2039V54.0424H73.3437V50.1822ZM77.2039 50.1822H81.0641V54.0424H77.2039V50.1822ZM81.0641 50.1822H84.9243V54.0424H81.0641V50.1822ZM88.7844 50.1822H92.6446V54.0424H88.7844V50.1822ZM92.6446 50.1822H96.5048V54.0424H92.6446V50.1822ZM96.5048 50.1822H100.365V54.0424H96.5048V50.1822ZM3.86023 54.0424H7.72042V57.9025H3.86023V54.0424ZM19.301 54.0424H23.1612V57.9025H19.301V54.0424ZM23.1612 54.0424H27.0214V57.9025H23.1612V54.0424ZM42.4621 54.0424H46.3223V57.9025H42.4621V54.0424ZM50.1825 54.0424H54.0427V57.9025H50.1825V54.0424ZM54.0427 54.0424H57.9029V57.9025H54.0427V54.0424ZM65.6233 54.0424H69.4835V57.9025H65.6233V54.0424ZM77.2039 54.0424H81.0641V57.9025H77.2039V54.0424ZM84.9243 54.0424H88.7844V57.9025H84.9243V54.0424ZM92.6446 54.0424H96.5048V57.9025H92.6446V54.0424ZM3.86023 57.9025H7.72042V61.7627H3.86023V57.9025ZM19.301 57.9025H23.1612V61.7627H19.301V57.9025ZM23.1612 57.9025H27.0214V61.7627H23.1612V57.9025ZM27.0214 57.9025H30.8816V61.7627H27.0214V57.9025ZM30.8816 57.9025H34.7418V61.7627H30.8816V57.9025ZM38.602 57.9025H42.4621V61.7627H38.602V57.9025ZM42.4621 57.9025H46.3223V61.7627H42.4621V57.9025ZM54.0427 57.9025H57.9029V61.7627H54.0427V57.9025ZM57.9029 57.9025H61.7631V61.7627H57.9029V57.9025ZM61.7631 57.9025H65.6233V61.7627H61.7631V57.9025ZM69.4835 57.9025H73.3437V61.7627H69.4835V57.9025ZM77.2039 57.9025H81.0641V61.7627H77.2039V57.9025ZM81.0641 57.9025H84.9243V61.7627H81.0641V57.9025ZM84.9243 57.9025H88.7844V61.7627H84.9243V57.9025ZM92.6446 57.9025H96.5048V61.7627H92.6446V57.9025ZM96.5048 57.9025H100.365V61.7627H96.5048V57.9025ZM3.86023 61.7627H7.72042V65.6229H3.86023L3.86023 61.7627ZM11.5806 61.7627H15.4408V65.6229H11.5806V61.7627ZM15.4408 61.7627H19.301V65.6229H15.4408V61.7627ZM34.7418 61.7627H38.602V65.6229H34.7418V61.7627ZM50.1825 61.7627H54.0427V65.6229H50.1825V61.7627ZM54.0427 61.7627H57.9029V65.6229H54.0427V61.7627ZM69.4835 61.7627H73.3437V65.6229H69.4835V61.7627ZM73.3437 61.7627H77.2039V65.6229H73.3437V61.7627ZM77.2039 61.7627H81.0641V65.6229H77.2039V61.7627ZM81.0641 61.7627H84.9243V65.6229H81.0641V61.7627ZM96.5048 61.7627H100.365V65.6229H96.5048V61.7627ZM3.86023 65.6229H7.72042V69.4831H3.86023V65.6229ZM11.5806 65.6229H15.4408V69.4831H11.5806V65.6229ZM23.1612 65.6229H27.0214V69.4831H23.1612V65.6229ZM27.0214 65.6229H30.8816V69.4831H27.0214V65.6229ZM38.602 65.6229H42.4621V69.4831H38.602V65.6229ZM50.1825 65.6229H54.0427V69.4831H50.1825V65.6229ZM57.9029 65.6229H61.7631V69.4831H57.9029V65.6229ZM61.7631 65.6229H65.6233V69.4831H61.7631V65.6229ZM65.6233 65.6229H69.4835V69.4831H65.6233V65.6229ZM69.4835 65.6229H73.3437V69.4831H69.4835V65.6229ZM73.3437 65.6229H77.2039V69.4831H73.3437V65.6229ZM77.2039 65.6229H81.0641V69.4831H77.2039V65.6229ZM81.0641 65.6229H84.9243V69.4831H81.0641V65.6229ZM88.7844 65.6229H92.6446V69.4831H88.7844V65.6229ZM34.7418 69.4831H38.602V73.3433H34.7418V69.4831ZM65.6233 69.4831H69.4835V73.3433H65.6233V69.4831ZM81.0641 69.4831H84.9243V73.3433H81.0641V69.4831ZM84.9243 69.4831H88.7844V73.3433H84.9243V69.4831ZM3.86023 73.3433H7.72042V77.2035H3.86023V73.3433ZM7.72042 73.3433H11.5806V77.2035H7.72042V73.3433ZM11.5806 73.3433H15.4408V77.2035H11.5806V73.3433ZM15.4408 73.3433H19.301V77.2035H15.4408V73.3433ZM19.301 73.3433H23.1612V77.2035H19.301V73.3433ZM23.1612 73.3433H27.0214V77.2035H23.1612V73.3433ZM27.0214 73.3433H30.8816V77.2035H27.0214V73.3433ZM34.7418 73.3433H38.602V77.2035H34.7418V73.3433ZM38.602 73.3433H42.4621V77.2035H38.602V73.3433ZM42.4621 73.3433H46.3223V77.2035H42.4621V73.3433ZM46.3223 73.3433H50.1825V77.2035H46.3223V73.3433ZM50.1825 73.3433H54.0427V77.2035H50.1825V73.3433ZM65.6233 73.3433H69.4835V77.2035H65.6233V73.3433ZM73.3437 73.3433H77.2039V77.2035H73.3437V73.3433ZM81.0641 73.3433H84.9243V77.2035H81.0641V73.3433ZM88.7844 73.3433H92.6446V77.2035H88.7844V73.3433ZM92.6446 73.3433H96.5048V77.2035H92.6446V73.3433ZM96.5048 73.3433H100.365V77.2035H96.5048V73.3433ZM3.86023 77.2035H7.72042V81.0637H3.86023V77.2035ZM27.0214 77.2035H30.8816V81.0637H27.0214V77.2035ZM46.3223 77.2035H50.1825V81.0637H46.3223V77.2035ZM57.9029 77.2035H61.7631V81.0637H57.9029V77.2035ZM65.6233 77.2035H69.4835V81.0637H65.6233V77.2035ZM81.0641 77.2035H84.9243V81.0637H81.0641V77.2035ZM84.9243 77.2035H88.7844V81.0637H84.9243V77.2035ZM96.5048 77.2035H100.365V81.0637H96.5048V77.2035ZM3.86023 81.0637H7.72042V84.9239H3.86023V81.0637ZM11.5806 81.0637H15.4408V84.9239H11.5806V81.0637ZM15.4408 81.0637H19.301V84.9239H15.4408V81.0637ZM19.301 81.0637H23.1612V84.9239H19.301V81.0637ZM27.0214 81.0637H30.8816V84.9239H27.0214V81.0637ZM34.7418 81.0637H38.602V84.9239H34.7418V81.0637ZM38.602 81.0637H42.4621V84.9239H38.602V81.0637ZM46.3223 81.0637H50.1825V84.9239H46.3223V81.0637ZM61.7631 81.0637H65.6233V84.9239H61.7631V81.0637ZM65.6233 81.0637H69.4835V84.9239H65.6233V81.0637ZM69.4835 81.0637H73.3437V84.9239H69.4835V81.0637ZM73.3437 81.0637H77.2039V84.9239H73.3437V81.0637ZM77.2039 81.0637H81.0641V84.9239H77.2039V81.0637ZM81.0641 81.0637H84.9243V84.9239H81.0641V81.0637ZM88.7844 81.0637H92.6446V84.9239H88.7844V81.0637ZM92.6446 81.0637H96.5048V84.9239H92.6446V81.0637ZM96.5048 81.0637H100.365V84.9239H96.5048V81.0637ZM3.86023 84.9239H7.72042V88.7841H3.86023V84.9239ZM11.5806 84.9239H15.4408V88.7841H11.5806V84.9239ZM15.4408 84.9239H19.301V88.7841H15.4408V84.9239ZM19.301 84.9239H23.1612V88.7841H19.301V84.9239ZM27.0214 84.9239H30.8816V88.7841H27.0214V84.9239ZM34.7418 84.9239H38.602V88.7841H34.7418V84.9239ZM50.1825 84.9239H54.0427V88.7841H50.1825V84.9239ZM54.0427 84.9239H57.9029V88.7841H54.0427V84.9239ZM57.9029 84.9239H61.7631V88.7841H57.9029V84.9239ZM65.6233 84.9239H69.4835V88.7841H65.6233V84.9239ZM69.4835 84.9239H73.3437V88.7841H69.4835V84.9239ZM73.3437 84.9239H77.2039V88.7841H73.3437V84.9239ZM81.0641 84.9239H84.9243V88.7841H81.0641V84.9239ZM84.9243 84.9239H88.7844V88.7841H84.9243V84.9239ZM88.7844 84.9239H92.6446V88.7841H88.7844V84.9239ZM92.6446 84.9239H96.5048V88.7841H92.6446V84.9239ZM96.5048 84.9239H100.365V88.7841H96.5048V84.9239ZM3.86023 88.7841H7.72042V92.6443H3.86023V88.7841ZM11.5806 88.7841H15.4408V92.6443H11.5806V88.7841ZM15.4408 88.7841H19.301V92.6443H15.4408V88.7841ZM19.301 88.7841H23.1612V92.6443H19.301V88.7841ZM27.0214 88.7841H30.8816V92.6443H27.0214V88.7841ZM34.7418 88.7841H38.602V92.6443H34.7418V88.7841ZM38.602 88.7841H42.4621V92.6443H38.602V88.7841ZM42.4621 88.7841H46.3223V92.6443H42.4621V88.7841ZM54.0427 88.7841H57.9029V92.6443H54.0427V88.7841ZM57.9029 88.7841H61.7631V92.6443H57.9029V88.7841ZM65.6233 88.7841H69.4835V92.6443H65.6233V88.7841ZM84.9243 88.7841H88.7844V92.6443H84.9243V88.7841ZM88.7844 88.7841H92.6446V92.6443H88.7844V88.7841ZM96.5048 88.7841H100.365V92.6443H96.5048V88.7841ZM3.86023 92.6443H7.72042V96.5045H3.86023V92.6443ZM27.0214 92.6443H30.8816V96.5045H27.0214V92.6443ZM34.7418 92.6443H38.602V96.5045H34.7418V92.6443ZM38.602 92.6443H42.4621V96.5045H38.602V92.6443ZM42.4621 92.6443H46.3223V96.5045H42.4621V92.6443ZM50.1825 92.6443H54.0427V96.5045H50.1825V92.6443ZM54.0427 92.6443H57.9029V96.5045H54.0427V92.6443ZM61.7631 92.6443H65.6233V96.5045H61.7631V92.6443ZM65.6233 92.6443H69.4835V96.5045H65.6233V92.6443ZM69.4835 92.6443H73.3437V96.5045H69.4835V92.6443ZM73.3437 92.6443H77.2039V96.5045H73.3437V92.6443ZM77.2039 92.6443H81.0641V96.5045H77.2039V92.6443ZM81.0641 92.6443H84.9243V96.5045H81.0641V92.6443ZM84.9243 92.6443H88.7844V96.5045H84.9243V92.6443ZM96.5048 92.6443H100.365V96.5045H96.5048V92.6443ZM3.86023 96.5045H7.72042V100.365H3.86023V96.5045ZM7.72042 96.5045H11.5806V100.365H7.72042V96.5045ZM11.5806 96.5045H15.4408V100.365H11.5806V96.5045ZM15.4408 96.5045H19.301V100.365H15.4408V96.5045ZM19.301 96.5045H23.1612V100.365H19.301V96.5045ZM23.1612 96.5045H27.0214V100.365H23.1612V96.5045ZM27.0214 96.5045H30.8816V100.365H27.0214V96.5045ZM34.7418 96.5045H38.602V100.365H34.7418V96.5045ZM42.4621 96.5045H46.3223V100.365H42.4621V96.5045ZM50.1825 96.5045H54.0427V100.365H50.1825V96.5045ZM57.9029 96.5045H61.7631V100.365H57.9029V96.5045ZM61.7631 96.5045H65.6233V100.365H61.7631V96.5045ZM69.4835 96.5045H73.3437V100.365H69.4835V96.5045ZM73.3437 96.5045H77.2039V100.365H73.3437V96.5045ZM77.2039 96.5045H81.0641V100.365H77.2039V96.5045ZM81.0641 96.5045H84.9243V100.365H81.0641V96.5045ZM84.9243 96.5045H88.7844V100.365H84.9243V96.5045ZM88.7844 96.5045H92.6446V100.365H88.7844V96.5045ZM92.6446 96.5045H96.5048V100.365H92.6446V96.5045ZM96.5048 96.5045H100.365V100.365H96.5048V96.5045Z" fill="#174BD0"/>
</g>
<defs>
<clipPath id="clip0_446_4521">
<rect width="104.225" height="104.225" fill="white"/>
</clipPath>
</defs>
</svg>
